<svg width="1440" height="137" viewBox="0 0 1440 137" fill="none" xmlns="http://www.w3.org/2000/svg">
<rect width="1440" height="137" fill="#01B1AE"/>
<g style="mix-blend-mode:overlay" opacity="0.3">
<path d="M1127.5 0C1089.73 0 1059 30.7291 1059 68.5V96.8795C1059 103.894 1065.14 109.6 1072.7 109.6H1079.55C1081.37 109.6 1083.11 108.878 1084.39 107.594C1085.68 106.309 1086.4 104.567 1086.4 102.75V67.5205C1086.4 65.7037 1085.68 63.9614 1084.39 62.6768C1083.11 61.3921 1081.37 60.6705 1079.55 60.6705H1073.33C1077.14 34.161 1099.95 13.7 1127.5 13.7C1155.05 13.7 1177.86 34.161 1181.67 60.6705H1175.45C1173.63 60.6705 1171.89 61.3921 1170.61 62.6768C1169.32 63.9614 1168.6 65.7037 1168.6 67.5205V109.6C1168.6 117.156 1162.46 123.3 1154.9 123.3H1141.2V116.45H1113.8V137H1154.9C1170.01 137 1182.3 124.711 1182.3 109.6C1189.86 109.6 1196 103.894 1196 96.8795V68.5C1196 30.7291 1165.27 0 1127.5 0Z" fill="black"/>
</g>
</svg>
