<svg width="1440" height="874" viewBox="0 0 1440 874" fill="none" xmlns="http://www.w3.org/2000/svg">
<rect width="1440" height="874" fill="#222222"/>
<mask id="mask0_112_1788" style="mask-type:alpha" maskUnits="userSpaceOnUse" x="0" y="0" width="1440" height="874">
<rect width="1440" height="874" fill="#D9D9D9"/>
</mask>
<g mask="url(#mask0_112_1788)">
<path d="M1.5 23.5045C39.8333 20.0045 132.2 33.1045 195 113.505C273.5 214.005 397.5 462.004 774 445.004C1075.2 431.404 1341.17 564.004 1436.5 632.004" stroke="#01B1AE" stroke-dasharray="2 2"/>
<path d="M1486.41 851.313C1450.14 864.205 1357.41 874.406 1276.64 812.079C1175.68 734.171 994.085 524.641 633.545 634.424C345.113 722.25 54.5804 659.705 -54.6319 617.455" stroke="#01B1AE" stroke-dasharray="2 2"/>
<path d="M1486.76 456.549C1456.36 432.947 1371.48 394.22 1275.26 428.119C1154.98 470.494 916.904 612.617 608.877 395.451C362.456 221.719 66.9502 190.136 -49.9999 196.062" stroke="#01B1AE" stroke-dasharray="2 2"/>
<path d="M-59.8418 799.893C-24.5326 815.222 67.2905 831.706 152.109 775.016C258.133 704.153 453.558 507.458 805.798 641.506C1087.59 748.744 1381.7 706.102 1493.54 671.376" stroke="#01B1AE" stroke-dasharray="2 2"/>
<path d="M-49.6848 776.919C-21.5808 793.533 59.579 792.799 159.387 656.96C284.146 487.161 536.928 49.9923 823.804 180.268C1053.31 284.488 1346.23 102.765 1464 -1.12443" stroke="#01B1AE" stroke-dasharray="2 2"/>
</g>
</svg>
