<svg width="93" height="93" viewBox="0 0 93 93" fill="none" xmlns="http://www.w3.org/2000/svg">
                      <g filter="url(#filter0_f_1_909)">
                      <circle cx="46.5" cy="46.5" r="23.5" fill="#01B1AE"></circle>
                      </g>
                      <path d="M59.2188 32C60.752 32 62.2225 32.6078 63.3067 33.6898C64.3909 34.7717 65 36.2391 65 37.7692V56.2308C65 57.7609 64.3909 59.2283 63.3067 60.3102C62.2225 61.3922 60.752 62 59.2188 62H33.7812C32.248 62 30.7775 61.3922 29.6933 60.3102C28.6091 59.2283 28 57.7609 28 56.2308V37.7692C28 36.2391 28.6091 34.7717 29.6933 33.6898C30.7775 32.6078 32.248 32 33.7812 32H59.2188ZM62.6875 41.1408L47.0874 50.3023C46.9399 50.3887 46.775 50.4414 46.6047 50.4566C46.4343 50.4717 46.2627 50.449 46.1023 50.39L45.9126 50.3023L30.3125 41.1454V56.2308C30.3125 57.1488 30.678 58.0293 31.3285 58.6784C31.979 59.3276 32.8613 59.6923 33.7812 59.6923H59.2188C60.1387 59.6923 61.021 59.3276 61.6715 58.6784C62.322 58.0293 62.6875 57.1488 62.6875 56.2308V41.1408ZM59.2188 34.3077H33.7812C32.8613 34.3077 31.979 34.6724 31.3285 35.3216C30.678 35.9707 30.3125 36.8512 30.3125 37.7692V38.4662L46.5 47.9692L62.6875 38.4615V37.7692C62.6875 36.8512 62.322 35.9707 61.6715 35.3216C61.021 34.6724 60.1387 34.3077 59.2188 34.3077Z" fill="#222222"></path>
                      <defs>
                      <filter id="filter0_f_1_909" x="0" y="0" width="93" height="93" filterUnits="userSpaceOnUse" color-interpolation-filters="sRGB">
                      <feFlood flood-opacity="0" result="BackgroundImageFix"></feFlood>
                      <feBlend mode="normal" in="SourceGraphic" in2="BackgroundImageFix" result="shape"></feBlend>
                      <feGaussianBlur stdDeviation="11.5" result="effect1_foregroundBlur_1_909"></feGaussianBlur>
                      </filter>
                      </defs>
                      </svg>