<svg width="51" height="51" viewBox="0 0 51 51" fill="none" xmlns="http://www.w3.org/2000/svg">
<path d="M25.3583 24.5083C29.1833 24.5083 32.1583 21.3916 32.1583 17.5666C32.1583 13.7416 29.0417 10.7666 25.2167 10.7666C21.3917 10.7666 18.4167 13.8833 18.4167 17.5666C18.4167 21.3916 21.5333 24.5083 25.3583 24.5083ZM25.2167 13.5999C25.3583 13.5999 25.3583 13.5999 25.2167 13.5999C27.4833 13.5999 29.325 15.4416 29.325 17.7083C29.325 19.9749 27.4833 21.6749 25.2167 21.6749C22.95 21.6749 21.25 19.8333 21.25 17.7083C21.25 15.4416 23.0917 13.5999 25.2167 13.5999Z" fill="#01B1AE"/>
<path d="M46.325 23.6583C43.6333 21.25 40.0917 19.975 36.4083 20.1166H35.275C34.9917 21.25 34.5667 22.2416 34 23.0916C34.85 22.95 35.5583 22.95 36.4083 22.95C39.1 22.8083 41.7917 23.6583 43.9167 25.2166V35.4166H46.75V24.0833L46.325 23.6583Z" fill="#01B1AE"/>
<path d="M33.15 11.0496C33.8583 9.34964 35.8417 8.49964 37.6833 9.20797C39.3833 9.91631 40.2333 11.8996 39.525 13.7413C38.9583 15.0163 37.6833 15.8663 36.4083 15.8663C36.125 15.8663 35.7 15.8663 35.4167 15.7246C35.5583 16.433 35.5583 17.1413 35.5583 17.708V18.558C35.8417 18.558 36.125 18.6996 36.4083 18.6996C39.95 18.6996 42.7833 15.8663 42.7833 12.4663C42.7833 8.92464 39.95 6.09131 36.55 6.09131C34.2833 6.09131 32.3 7.22464 31.1667 9.20797C31.875 9.63297 32.5833 10.1996 33.15 11.0496Z" fill="#01B1AE"/>
<path d="M17 23.2332C16.4333 22.3832 16.0083 21.3916 15.725 20.2582H14.5917C10.9083 20.1166 7.36668 21.3916 4.67502 23.6582L4.25002 24.0832V35.4166H7.08335V25.2166C9.35002 23.6582 11.9 22.8082 14.5917 22.9499C15.4417 22.9499 16.2917 23.0916 17 23.2332Z" fill="#01B1AE"/>
<path d="M14.5917 18.5587C14.875 18.5587 15.1584 18.5587 15.4417 18.4171V17.5671C15.4417 16.8587 15.4417 16.1504 15.5834 15.5837C15.3 15.7254 14.875 15.7254 14.5917 15.7254C12.75 15.7254 11.1917 14.1671 11.1917 12.3254C11.1917 10.4837 12.75 8.92539 14.5917 8.92539C16.0084 8.92539 17.2834 9.77539 17.85 11.0504C18.4167 10.3421 19.2667 9.63372 19.975 9.06706C18.1334 6.09206 14.3084 5.10039 11.3334 6.94206C8.35835 8.78372 7.36669 12.6087 9.20835 15.5837C10.3417 17.4254 12.325 18.5587 14.5917 18.5587Z" fill="#01B1AE"/>
<path d="M36.975 32.1585L36.6917 31.7335C33.8584 28.6168 29.8917 26.7751 25.6417 26.9168C21.3917 26.7751 17.2834 28.6168 14.45 31.7335L14.1667 32.1585V42.9251C14.1667 44.2001 15.1584 45.3335 16.575 45.3335H34.7084C35.9834 45.3335 37.1167 44.2001 37.1167 42.9251V32.1585H36.975ZM34.1417 42.5001H17V33.1501C19.2667 30.8835 22.3834 29.7501 25.6417 29.7501C28.7584 29.6085 31.875 30.8835 34.1417 33.1501V42.5001Z" fill="#01B1AE"/>
</svg>
