<svg width="44" height="44" viewBox="0 0 44 44" fill="none" xmlns="http://www.w3.org/2000/svg">
<path d="M39.1111 16.1579V36.6668H4.88891V9.77794H8.55558V7.3335H4.58336C4.29765 7.33827 4.01567 7.39928 3.75355 7.51305C3.49142 7.62682 3.25428 7.79111 3.05565 7.99654C2.85703 8.20197 2.70082 8.44452 2.59596 8.71033C2.49109 8.97614 2.43961 9.26001 2.44447 9.54572V36.8991C2.43961 37.1848 2.49109 37.4686 2.59596 37.7344C2.70082 38.0002 2.85703 38.2428 3.05565 38.4482C3.25428 38.6537 3.49142 38.818 3.75355 38.9317C4.01567 39.0455 4.29765 39.1065 4.58336 39.1113H39.4167C39.7024 39.1065 39.9844 39.0455 40.2465 38.9317C40.5086 38.818 40.7458 38.6537 40.9444 38.4482C41.143 38.2428 41.2992 38.0002 41.4041 37.7344C41.509 37.4686 41.5604 37.1848 41.5556 36.8991V15.0824C40.798 15.5591 39.9744 15.9215 39.1111 16.1579Z" fill="#04B4B0"/>
<path d="M9.77777 17.1113H12.2222V19.5558H9.77777V17.1113Z" fill="#04B4B0"/>
<path d="M17.1111 17.1113H19.5556V19.5558H17.1111V17.1113Z" fill="#04B4B0"/>
<path d="M24.4445 17.1113H26.8889V19.5558H24.4445V17.1113Z" fill="#04B4B0"/>
<path d="M31.7778 17.1113H34.2222V19.5558H31.7778V17.1113Z" fill="#04B4B0"/>
<path d="M9.77777 23.2222H12.2222V25.6666H9.77777V23.2222Z" fill="#04B4B0"/>
<path d="M17.1111 23.2222H19.5556V25.6666H17.1111V23.2222Z" fill="#04B4B0"/>
<path d="M24.4445 23.2222H26.8889V25.6666H24.4445V23.2222Z" fill="#04B4B0"/>
<path d="M31.7778 23.2222H34.2222V25.6666H31.7778V23.2222Z" fill="#04B4B0"/>
<path d="M9.77777 29.3335H12.2222V31.7779H9.77777V29.3335Z" fill="#04B4B0"/>
<path d="M17.1111 29.3335H19.5556V31.7779H17.1111V29.3335Z" fill="#04B4B0"/>
<path d="M24.4445 29.3335H26.8889V31.7779H24.4445V29.3335Z" fill="#04B4B0"/>
<path d="M31.7778 29.3335H34.2222V31.7779H31.7778V29.3335Z" fill="#04B4B0"/>
<path d="M12.2222 12.2221C12.5464 12.2221 12.8573 12.0933 13.0865 11.8641C13.3157 11.6349 13.4444 11.324 13.4444 10.9999V3.66656C13.4444 3.3424 13.3157 3.03153 13.0865 2.80232C12.8573 2.57311 12.5464 2.44434 12.2222 2.44434C11.8981 2.44434 11.5872 2.57311 11.358 2.80232C11.1288 3.03153 11 3.3424 11 3.66656V10.9999C11 11.324 11.1288 11.6349 11.358 11.8641C11.5872 12.0933 11.8981 12.2221 12.2222 12.2221Z" fill="#04B4B0"/>
<path d="M27.5 7.3335H15.8889V9.77794H27.8422C27.6183 8.98231 27.5032 8.16002 27.5 7.3335Z" fill="#04B4B0"/>
<path d="M36.6667 13.4444C40.0417 13.4444 42.7778 10.7084 42.7778 7.33328C42.7778 3.95821 40.0417 1.22217 36.6667 1.22217C33.2916 1.22217 30.5555 3.95821 30.5555 7.33328C30.5555 10.7084 33.2916 13.4444 36.6667 13.4444Z" fill="#04B4B0"/>
</svg>
