<svg width="68" height="40" viewBox="0 0 68 40" fill="none" xmlns="http://www.w3.org/2000/svg">
<path fill-rule="evenodd" clip-rule="evenodd" d="M41.3334 16.8571C41.3334 15.5689 40.8216 14.3335 39.9107 13.4226C38.9998 12.5117 37.7644 12 36.4762 12H30C28.7118 12 27.4764 12.5117 26.5655 13.4226C25.6546 14.3335 25.1429 15.5689 25.1429 16.8571H23.5238C22.2356 16.8571 21.0002 17.3689 20.0893 18.2798C19.1784 19.1907 18.6667 20.4261 18.6667 21.7143V34.6667C18.6667 35.9549 19.1784 37.1903 20.0893 38.1012C21.0002 39.0121 22.2356 39.5238 23.5238 39.5238H42.9524C44.2406 39.5238 45.476 39.0121 46.3869 38.1012C47.2978 37.1903 47.8095 35.9549 47.8095 34.6667V21.7143C47.8095 20.4261 47.2978 19.1907 46.3869 18.2798C45.476 17.3689 44.2406 16.8571 42.9524 16.8571H41.3334ZM36.4762 15.2381H30C29.5706 15.2381 29.1588 15.4087 28.8552 15.7123C28.5515 16.0159 28.381 16.4277 28.381 16.8571H38.0953C38.0953 16.4277 37.9247 16.0159 37.621 15.7123C37.3174 15.4087 36.9056 15.2381 36.4762 15.2381ZM23.5238 20.0952H42.9524C43.3818 20.0952 43.7936 20.2658 44.0972 20.5694C44.4009 20.8731 44.5714 21.2849 44.5714 21.7143V34.6667C44.5714 35.0961 44.4009 35.5079 44.0972 35.8115C43.7936 36.1151 43.3818 36.2857 42.9524 36.2857H23.5238C23.0944 36.2857 22.6826 36.1151 22.379 35.8115C22.0754 35.5079 21.9048 35.0961 21.9048 34.6667V21.7143C21.9048 21.2849 22.0754 20.8731 22.379 20.5694C22.6826 20.2658 23.0944 20.0952 23.5238 20.0952Z" fill="#01B1AE"/>
<path fill-rule="evenodd" clip-rule="evenodd" d="M59.244 1.42262C60.1549 2.33352 60.6667 3.56895 60.6667 4.85714H62.2857C63.5739 4.85714 64.8093 5.36888 65.7202 6.27977C66.6311 7.19066 67.1429 8.42609 67.1429 9.71429V22.6667C67.1429 23.9549 66.6311 25.1903 65.7202 26.1012C64.8093 27.0121 63.5739 27.5238 62.2857 27.5238H49.966C49.9884 27.3524 50 27.1775 50 27V24.2857H62.2857C62.7151 24.2857 63.1269 24.1151 63.4306 23.8115C63.7342 23.5079 63.9048 23.0961 63.9048 22.6667V9.71429C63.9048 9.28489 63.7342 8.87308 63.4306 8.56945C63.1269 8.26582 62.7151 8.09524 62.2857 8.09524H42.8571C42.4277 8.09524 42.0159 8.26582 41.7123 8.56945C41.4087 8.87308 41.2381 9.28489 41.2381 9.71429V10H38V9.71429C38 8.42609 38.5117 7.19066 39.4226 6.27977C40.3335 5.36888 41.5689 4.85714 42.8571 4.85714H44.4762C44.4762 3.56895 44.9879 2.33352 45.8988 1.42262C46.8097 0.511733 48.0451 0 49.3333 0H55.8095C57.0977 0 58.3332 0.511733 59.244 1.42262ZM49.3333 3.2381H55.8095C56.2389 3.2381 56.6507 3.40867 56.9544 3.7123C57.258 4.01593 57.4286 4.42774 57.4286 4.85714H47.7143C47.7143 4.42774 47.8849 4.01593 48.1885 3.7123C48.4921 3.40867 48.9039 3.2381 49.3333 3.2381Z" fill="#01B1AE"/>
<path fill-rule="evenodd" clip-rule="evenodd" d="M7.89884 1.42262C6.98795 2.33352 6.47622 3.56895 6.47622 4.85714H4.85717C3.56898 4.85714 2.33354 5.36888 1.42265 6.27977C0.511761 7.19066 2.86102e-05 8.42609 2.86102e-05 9.71429V22.6667C2.86102e-05 23.9549 0.511761 25.1903 1.42265 26.1012C2.33354 27.0121 3.56898 27.5238 4.85717 27.5238H17.1769C17.1544 27.3524 17.1429 27.1775 17.1429 27V24.2857H4.85717C4.42777 24.2857 4.01596 24.1151 3.71233 23.8115C3.4087 23.5079 3.23812 23.0961 3.23812 22.6667V9.71429C3.23812 9.28489 3.4087 8.87308 3.71233 8.56945C4.01596 8.26582 4.42777 8.09524 4.85717 8.09524H24.2857C24.7151 8.09524 25.1269 8.26582 25.4306 8.56945C25.7342 8.87308 25.9048 9.28489 25.9048 9.71429V10H29.1429V9.71429C29.1429 8.42609 28.6311 7.19066 27.7203 6.27977C26.8094 5.36888 25.5739 4.85714 24.2857 4.85714H22.6667C22.6667 3.56895 22.155 2.33352 21.2441 1.42262C20.3332 0.511733 19.0977 0 17.8096 0H11.3334C10.0452 0 8.80973 0.511733 7.89884 1.42262ZM17.8096 3.2381H11.3334C10.904 3.2381 10.4922 3.40867 10.1885 3.7123C9.88489 4.01593 9.71431 4.42774 9.71431 4.85714H19.4286C19.4286 4.42774 19.258 4.01593 18.9544 3.7123C18.6508 3.40867 18.2389 3.2381 17.8096 3.2381Z" fill="#01B1AE"/>
</svg>
