<svg width="66" height="40" viewBox="0 0 66 40" fill="none" xmlns="http://www.w3.org/2000/svg">
<path d="M0.692383 29.2308H22.2308V32.3077H0.692383V29.2308ZM0.692383 36.9231H22.2308V40H0.692383V36.9231ZM14.5385 21.5385V13.8462H16.077C17.7085 13.8441 19.2725 13.1951 20.4262 12.0415C21.5798 10.8879 22.2288 9.32378 22.2308 7.69231V3.07692H17.6155C16.04 3.07951 14.5263 3.68952 13.3893 4.78C12.5926 3.33349 11.4227 2.12705 10.0013 1.28635C8.57994 0.445652 6.95915 0.00144459 5.30777 0H0.692383V4.61538C0.695233 7.06266 1.66867 9.40889 3.39916 11.1394C5.12965 12.8699 7.47587 13.8433 9.92315 13.8462H11.4616V21.5385H0.692383V24.6154H22.2308V21.5385H14.5385ZM17.6155 6.15385H19.1539V7.69231C19.1531 8.50811 18.8287 9.29026 18.2518 9.86712C17.675 10.444 16.8928 10.7684 16.077 10.7692H14.5385V9.23077C14.5394 8.41497 14.8638 7.63281 15.4406 7.05596C16.0175 6.4791 16.7997 6.15466 17.6155 6.15385ZM9.92315 10.7692C8.29168 10.7672 6.7276 10.1182 5.57397 8.96456C4.42034 7.81093 3.77134 6.24686 3.76931 4.61538V3.07692H5.30777C6.93924 3.07896 8.50332 3.72796 9.65695 4.88159C10.8106 6.03522 11.4596 7.59929 11.4616 9.23077V10.7692H9.92315Z" fill="#01B1AE"/>
<path d="M51.6984 24.0987L44.8421 19.6002L34.5046 33.8464H62.8077V40.0002H31.5577C29.9006 39.9986 28.3119 39.3497 27.1401 38.196C25.9684 37.0423 25.3094 35.478 25.3077 33.8464V3.07715H31.5577V27.3202L41.514 13.5941C41.986 12.9439 42.6964 12.5001 43.4949 12.3565C44.2933 12.213 45.1172 12.3809 45.7921 12.8248L52.7046 17.3664L60.3077 7.38484L65.3077 11.0771L55.9327 23.3848C55.4534 24.0143 54.7474 24.439 53.9599 24.5718C53.1723 24.7045 52.3631 24.5353 51.6984 24.0987Z" fill="#01B1AE"/>
</svg>
