<svg width="44" height="35" viewBox="0 0 44 35" fill="none" xmlns="http://www.w3.org/2000/svg">
<path fill-rule="evenodd" clip-rule="evenodd" d="M1.68183 33.6174C2.53494 34.4683 3.56099 34.8937 4.75999 34.8937H39.64C40.839 34.8937 41.8658 34.4683 42.7203 33.6174C43.5734 32.7651 44 31.7411 44 30.5453V4.45485C44 3.25904 43.5734 2.23571 42.7203 1.38488C41.8658 0.532589 40.839 0.106445 39.64 0.106445H4.75999C3.56099 0.106445 2.53494 0.532589 1.68183 1.38488C0.827274 2.23571 0.399994 3.25904 0.399994 4.45485V30.5453C0.399994 31.7411 0.827274 32.7651 1.68183 33.6174ZM27.65 22.9356V30.5453H4.75999V22.9356H27.65ZM39.64 30.5453H32.01V10.9775H39.64V30.5453ZM14.9087 7.86166C14.8435 7.79642 14.755 7.75977 14.6627 7.75977C14.5705 7.75977 14.482 7.79642 14.4168 7.86166C14.3515 7.92689 14.3149 8.01538 14.3149 8.10764V9.26721C14.3149 9.35947 14.3515 9.44796 14.4168 9.5132C14.482 9.57843 14.5705 9.61508 14.6627 9.61508C14.755 9.61508 14.8435 9.57843 14.9087 9.5132C14.974 9.44796 15.0106 9.35947 15.0106 9.26721V8.10764C15.0106 8.01538 14.974 7.92689 14.9087 7.86166ZM12.6915 8.57177C12.5993 8.57177 12.5109 8.60837 12.4456 8.67351C12.3805 8.73874 12.3439 8.82715 12.3439 8.91934C12.3439 9.01153 12.3805 9.09994 12.4456 9.16517L13.2573 9.97687C13.2892 10.0111 13.3276 10.0385 13.3703 10.0575C13.4129 10.0765 13.459 10.0867 13.5057 10.0875C13.5524 10.0884 13.5988 10.0798 13.6421 10.0623C13.6854 10.0448 13.7248 10.0187 13.7578 9.9857C13.7909 9.95267 13.8169 9.91332 13.8344 9.87C13.8519 9.82669 13.8605 9.78029 13.8597 9.73358C13.8588 9.68687 13.8486 9.64081 13.8296 9.59814C13.8106 9.55546 13.7832 9.51706 13.749 9.48521L12.9373 8.67351C12.8721 8.60837 12.7837 8.57177 12.6915 8.57177ZM16.9816 8.91934C16.9816 8.82715 16.945 8.73874 16.8798 8.67351C16.8146 8.60837 16.7262 8.57177 16.634 8.57177C16.5418 8.57177 16.4534 8.60837 16.3882 8.67351L15.5765 9.48521C15.5423 9.51706 15.5149 9.55546 15.4959 9.59814C15.4769 9.64081 15.4666 9.68687 15.4658 9.73358C15.465 9.78029 15.4736 9.82669 15.4911 9.87C15.5086 9.91332 15.5346 9.95267 15.5677 9.9857C15.6007 10.0187 15.64 10.0448 15.6834 10.0623C15.7267 10.0798 15.7731 10.0884 15.8198 10.0875C15.8665 10.0867 15.9125 10.0765 15.9552 10.0575C15.9979 10.0385 16.0363 10.0111 16.0681 9.97687L16.8798 9.16517C16.945 9.09994 16.9816 9.01153 16.9816 8.91934ZM11.6338 10.6446C11.5685 10.7099 11.5319 10.7984 11.5319 10.8906C11.5319 10.9829 11.5685 11.0714 11.6338 11.1366C11.699 11.2018 11.7875 11.2385 11.8798 11.2385H13.0393C13.1316 11.2385 13.2201 11.2018 13.2853 11.1366C13.3506 11.0714 13.3872 10.9829 13.3872 10.8906C13.3872 10.7984 13.3506 10.7099 13.2853 10.6446C13.2201 10.5794 13.1316 10.5427 13.0393 10.5427H11.8798C11.7875 10.5427 11.699 10.5794 11.6338 10.6446ZM15.3246 10.7682C14.9281 10.4277 14.3149 10.7097 14.3149 11.2325V16.4612C14.3149 17.0229 15.0083 17.2882 15.3826 16.8694L16.5951 15.5141C16.7231 15.3717 16.903 15.2863 17.0946 15.2789L18.8757 15.2079C19.4309 15.1852 19.6712 14.4936 19.2491 14.1319L15.3246 10.7682Z" fill="#01B1AE"/>
</svg>
