<svg width="41" height="37" viewBox="0 0 41 37" fill="none" xmlns="http://www.w3.org/2000/svg">
<path d="M38.95 18.901C38.95 7.6465 30.217 0 20.5 0C10.8855 0 2.05 7.4825 2.05 19.024C0.82 19.721 0 21.033 0 22.55V26.65C0 28.905 1.845 30.75 4.1 30.75H6.15V18.245C6.15 10.3115 12.5665 3.895 20.5 3.895C28.4335 3.895 34.85 10.3115 34.85 18.245V32.8H18.45V36.9H34.85C37.105 36.9 38.95 35.055 38.95 32.8V30.299C40.1595 29.6635 41 28.413 41 26.937V22.222C41 20.787 40.1595 19.5365 38.95 18.901Z" fill="#01B1AE"/>
<path d="M14.35 22.5502C15.4822 22.5502 16.4 21.6324 16.4 20.5002C16.4 19.368 15.4822 18.4502 14.35 18.4502C13.2178 18.4502 12.3 19.368 12.3 20.5002C12.3 21.6324 13.2178 22.5502 14.35 22.5502Z" fill="#01B1AE"/>
<path d="M26.65 22.5502C27.7822 22.5502 28.7 21.6324 28.7 20.5002C28.7 19.368 27.7822 18.4502 26.65 18.4502C25.5178 18.4502 24.6 19.368 24.6 20.5002C24.6 21.6324 25.5178 22.5502 26.65 22.5502Z" fill="#01B1AE"/>
<path d="M32.8 16.4614C32.3112 13.5794 30.8185 10.9632 28.5862 9.07603C26.3538 7.18884 23.5257 6.1523 20.6025 6.1499C14.391 6.1499 7.70805 11.2954 8.24105 19.3724C10.769 18.338 13.0016 16.694 14.74 14.5873C16.4784 12.4805 17.6684 9.97626 18.204 7.2979C20.8895 12.6894 26.404 16.3999 32.8 16.4614Z" fill="#01B1AE"/>
</svg>
    