<svg width="37" height="41" viewBox="0 0 37 41" fill="none" xmlns="http://www.w3.org/2000/svg">
<path d="M7.76889 32.0069C7.74441 31.9348 7.69934 31.8714 7.63927 31.8246C7.57919 31.7779 7.50673 31.7497 7.43082 31.7436L5.21042 31.5672L4.24958 29.4406C4.21898 29.3721 4.16921 29.3139 4.10627 29.2731C4.04334 29.2322 3.96992 29.2105 3.8949 29.2104C3.81987 29.2104 3.74643 29.2321 3.68345 29.2728C3.62047 29.3136 3.57063 29.3717 3.53996 29.4402L2.57912 31.5672L0.358718 31.7436C0.284116 31.7495 0.212796 31.7768 0.15329 31.8222C0.0937851 31.8676 0.0486141 31.9291 0.0231814 31.9995C-0.00225132 32.0699 -0.00686877 32.1461 0.00988147 32.219C0.0266317 32.2919 0.0640404 32.3585 0.117632 32.4107L1.75849 34.0101L1.17817 36.5226C1.16055 36.5987 1.1662 36.6783 1.19438 36.7511C1.22257 36.8239 1.27199 36.8865 1.33622 36.9309C1.40046 36.9753 1.47656 36.9993 1.55464 36.9999C1.63271 37.0005 1.70916 36.9776 1.77407 36.9342L3.89477 35.5206L6.01547 36.9342C6.08181 36.9783 6.16005 37.0009 6.23966 36.9992C6.31927 36.9975 6.39644 36.9714 6.46079 36.9245C6.52514 36.8776 6.57357 36.8121 6.59959 36.7368C6.6256 36.6616 6.62794 36.5802 6.6063 36.5035L5.89395 34.0112L7.66061 32.4216C7.77629 32.3172 7.81874 32.1545 7.76889 32.0069Z" fill="#01B1AE"/>
<path d="M19.4479 34.6537C19.4173 34.5636 19.361 34.4844 19.2859 34.426C19.2108 34.3675 19.1202 34.3323 19.0253 34.3247L16.2498 34.1042L15.0488 31.4459C15.0105 31.3603 14.9483 31.2875 14.8697 31.2365C14.791 31.1854 14.6992 31.1583 14.6054 31.1582C14.5117 31.1582 14.4199 31.1852 14.3411 31.2362C14.2624 31.2872 14.2001 31.3598 14.1618 31.4454L12.9607 34.1042L10.1852 34.3247C10.092 34.3321 10.0028 34.3662 9.92843 34.4229C9.85405 34.4796 9.79758 34.5565 9.76579 34.6445C9.734 34.7325 9.72823 34.8277 9.74917 34.9189C9.77011 35.01 9.81687 35.0932 9.88386 35.1585L11.9349 37.1577L11.2095 40.2984C11.1875 40.3935 11.1946 40.493 11.2298 40.584C11.265 40.675 11.3268 40.7533 11.4071 40.8088C11.4874 40.8642 11.5825 40.8943 11.6801 40.895C11.7777 40.8958 11.8733 40.8672 11.9544 40.8129L14.6053 39.0459L17.2561 40.8129C17.3391 40.868 17.4369 40.8963 17.5364 40.8941C17.6359 40.892 17.7324 40.8594 17.8128 40.8007C17.8932 40.7421 17.9538 40.6602 17.9863 40.5662C18.0188 40.4721 18.0217 40.3703 17.9947 40.2746L17.1043 37.1592L19.3126 35.1722C19.4572 35.0417 19.5102 34.8382 19.4479 34.6537Z" fill="#01B1AE"/>
<path d="M29.1899 33.9546C29.1654 33.8825 29.1204 33.8192 29.0603 33.7724C29.0002 33.7256 28.9277 33.6975 28.8518 33.6914L26.6314 33.515L25.6706 31.3883C25.64 31.3198 25.5902 31.2617 25.5273 31.2208C25.4644 31.18 25.3909 31.1582 25.3159 31.1582C25.2409 31.1582 25.1675 31.1798 25.1045 31.2206C25.0415 31.2614 24.9917 31.3195 24.961 31.3879L24.0001 33.515L21.7797 33.6914C21.7051 33.6973 21.6338 33.7246 21.5743 33.7699C21.5148 33.8153 21.4696 33.8769 21.4442 33.9472C21.4188 34.0176 21.4142 34.0938 21.4309 34.1667C21.4477 34.2397 21.4851 34.3062 21.5387 34.3585L23.1795 35.9578L22.5992 38.4704C22.5816 38.5464 22.5872 38.626 22.6154 38.6988C22.6436 38.7716 22.693 38.8343 22.7572 38.8787C22.8215 38.923 22.8976 38.9471 22.9757 38.9477C23.0537 38.9483 23.1302 38.9254 23.1951 38.882L25.3158 37.4684L27.4365 38.882C27.5028 38.926 27.5811 38.9487 27.6607 38.947C27.7403 38.9452 27.8175 38.9191 27.8818 38.8722C27.9462 38.8253 27.9946 38.7598 28.0206 38.6846C28.0466 38.6093 28.049 38.5279 28.0273 38.4513L27.315 35.959L29.0816 34.3694C29.1973 34.265 29.2398 34.1022 29.1899 33.9546Z" fill="#01B1AE"/>
<path d="M36.9846 31.3078C36.9662 31.2537 36.9324 31.2062 36.8873 31.1711C36.8423 31.136 36.7879 31.1149 36.731 31.1103L35.0657 30.978L34.3451 29.3831C34.3221 29.3317 34.2848 29.288 34.2376 29.2574C34.1904 29.2268 34.1353 29.2105 34.0791 29.2104C34.0228 29.2104 33.9677 29.2267 33.9205 29.2572C33.8732 29.2878 33.8359 29.3314 33.8129 29.3828L33.0922 30.978L31.4269 31.1103C31.371 31.1148 31.3175 31.1352 31.2729 31.1693C31.2282 31.2033 31.1944 31.2494 31.1753 31.3022C31.1562 31.355 31.1527 31.4122 31.1653 31.4669C31.1779 31.5216 31.2059 31.5715 31.2461 31.6106L32.4768 32.8102L32.0415 34.6946C32.0283 34.7516 32.0325 34.8113 32.0537 34.8659C32.0748 34.9205 32.1119 34.9675 32.1601 35.0008C32.2082 35.0341 32.2653 35.0521 32.3239 35.0525C32.3824 35.053 32.4398 35.0358 32.4885 35.0033L34.079 33.9431L35.6695 35.0033C35.7193 35.0363 35.7779 35.0533 35.8376 35.052C35.8974 35.0507 35.9552 35.0311 36.0035 34.996C36.0518 34.9608 36.0881 34.9117 36.1076 34.8552C36.1271 34.7988 36.1289 34.7377 36.1126 34.6803L35.5784 32.811L36.9034 31.6188C36.9901 31.5405 37.022 31.4185 36.9846 31.3078Z" fill="#01B1AE"/>
<path fill-rule="evenodd" clip-rule="evenodd" d="M19.4737 0C17.5479 0 15.6654 0.571056 14.0642 1.64095C12.463 2.71085 11.215 4.23154 10.478 6.01071C9.74106 7.78989 9.54824 9.74764 9.92394 11.6364C10.2996 13.5252 11.227 15.2601 12.5887 16.6218C13.9504 17.9835 15.6854 18.9109 17.5741 19.2866C19.4629 19.6623 21.4206 19.4695 23.1998 18.7325C24.979 17.9956 26.4997 16.7476 27.5696 15.1463C28.6395 13.5451 29.2105 11.6626 29.2105 9.73684C29.2105 7.15447 28.1847 4.67787 26.3587 2.85185C24.5327 1.02584 22.0561 0 19.4737 0ZM19.4737 15.5789C18.3182 15.5789 17.1887 15.2363 16.228 14.5944C15.2673 13.9524 14.5185 13.04 14.0763 11.9725C13.6341 10.905 13.5184 9.73036 13.7438 8.5971C13.9693 7.46385 14.5257 6.42288 15.3427 5.60585C16.1597 4.78882 17.2007 4.23241 18.3339 4.00699C19.4672 3.78157 20.6419 3.89727 21.7094 4.33944C22.7769 4.78162 23.6893 5.53041 24.3312 6.49114C24.9732 7.45187 25.3158 8.58138 25.3158 9.73684C25.3158 11.2863 24.7003 12.7722 23.6047 13.8678C22.5091 14.9634 21.0231 15.5789 19.4737 15.5789ZM37 36.9988V37H33.1053V35.7995L34.079 35.1504L36.7299 36.9174C36.81 36.9706 36.904 36.9989 37 36.9988ZM31.8417 30.2557L32.4344 30.2087L33.6355 27.5499C33.6738 27.4643 33.7361 27.3917 33.8149 27.3407C33.8936 27.2897 33.9854 27.2626 34.0792 27.2627C34.1729 27.2627 34.2647 27.2899 34.3434 27.341C34.4221 27.392 34.4843 27.4647 34.5225 27.5504L35.7236 30.2087L36.1223 30.2403C35.445 28.4454 34.3901 26.7963 33.0074 25.4136C30.451 22.8572 26.9837 21.421 23.3684 21.421H15.579C11.9636 21.421 8.49639 22.8572 5.93997 25.4136C5.32238 26.0312 4.77016 26.702 4.28779 27.4152C4.34669 27.4689 4.3942 27.5345 4.42701 27.6079L5.86826 30.7978L6.78588 30.8708C7.2586 29.8767 7.9008 28.9608 8.69396 28.1676C10.52 26.3416 12.9966 25.3158 15.579 25.3158H23.3684C25.9508 25.3158 28.4274 26.3416 30.2534 28.1676C30.8801 28.7944 31.4126 29.4978 31.8417 30.2557ZM36.8478 33.0209C36.9325 33.5831 36.9824 34.1527 36.9961 34.7266L36.578 33.2637L36.8478 33.0209ZM3.48669 37L3.89479 36.728L4.30289 37H3.48669Z" fill="#01B1AE"/>
</svg>
