<svg width="37" height="41" viewBox="0 0 37 41" fill="none" xmlns="http://www.w3.org/2000/svg">
<path d="M24.8928 36.8703L21.1003 33.0778L19.0357 35.1425L24.8928 40.9996L36.6071 29.2853L34.5425 27.2207L24.8928 36.8703Z" fill="#01B1AE"/>
<path d="M29.2857 4.39286H24.8929V2.92857C24.8905 2.15258 24.5813 1.40903 24.0325 0.860319C23.4838 0.311607 22.7403 0.00231756 21.9643 0H10.25C9.47401 0.00231756 8.73046 0.311607 8.18175 0.860319C7.63304 1.40903 7.32375 2.15258 7.32143 2.92857V4.39286H2.92857C2.15258 4.39517 1.40903 4.70446 0.860319 5.25318C0.311607 5.80189 0.00231756 6.54544 0 7.32143V38.0714C0.00231756 38.8474 0.311607 39.591 0.860319 40.1397C1.40903 40.6884 2.15258 40.9977 2.92857 41H16.1071V38.0714H2.92857V7.32143H7.32143V11.7143H24.8929V7.32143H29.2857V23.4286H32.2143V7.32143C32.212 6.54544 31.9027 5.80189 31.354 5.25318C30.8053 4.70446 30.0617 4.39517 29.2857 4.39286ZM21.9643 8.78571H10.25V2.92857H21.9643V8.78571Z" fill="#01B1AE"/>
</svg>
